<?xml version="1.0" encoding="utf-8"?>
<!-- Generator: Adobe Illustrator 24.2.1, SVG Export Plug-In . SVG Version: 6.00 Build 0)  -->
<svg version="1.1" id="Layer_1" xmlns="http://www.w3.org/2000/svg" xmlns:xlink="http://www.w3.org/1999/xlink" x="0px" y="0px"
	 viewBox="0 0 595.3 421" style="enable-background:new 0 0 595.3 841.9;" xml:space="preserve">
<style type="text/css">
	.st0{fill:#FFFFFF;}
</style>
<g>
	<path class="st0" d="M290.5,809.2C135.3,809.2,9,682.9,9,527.7V273.2c0-36.4,29.5-65.9,65.9-65.9s65.9,29.5,65.9,65.9v254.5
		c0,82.5,67.1,149.6,149.6,149.6s149.6-67.1,149.6-149.6V235.3l-115.2,79.9c-29.9,20.8-71,13.3-91.8-16.6
		c-20.8-29.9-13.3-71,16.6-91.8L468.4,55.2c20.2-14,46.4-15.6,68.2-4.2s35.4,33.9,35.4,58.4v418.4
		C572,682.9,445.7,809.2,290.5,809.2z" fill-opacity="0.8"/>
</g>
</svg>
