<?xml version="1.0" encoding="utf-8"?>
<!-- Generator: Adobe Illustrator 24.0.3, SVG Export Plug-In . SVG Version: 6.00 Build 0)  -->
<svg version="1.1" id="Layer_1" xmlns="http://www.w3.org/2000/svg" xmlns:xlink="http://www.w3.org/1999/xlink" x="0px" y="0px"
	 viewBox="0 0 595.28 841.89" style="enable-background:new 0 0 595.28 841.89;" xml:space="preserve">
<style type="text/css">
	.st0{fill:#61C5E7;}
</style>
<g>
	<path class="st0" d="M290.49,809.19c-155.2,0-281.46-126.27-281.46-281.47V273.2c0-36.42,29.52-65.94,65.94-65.94
		s65.94,29.52,65.94,65.94v254.52c0,82.48,67.11,149.59,149.59,149.59c82.48,0,149.59-67.11,149.59-149.59V235.34l-115.2,79.92
		c-29.92,20.75-71.01,13.33-91.76-16.59c-20.76-29.92-13.33-71.01,16.59-91.76L468.43,55.17c20.16-13.99,46.42-15.62,68.16-4.24
		c21.74,11.38,35.36,33.89,35.36,58.42v418.37C571.95,682.92,445.69,809.19,290.49,809.19z"/>
</g>
</svg>
